<svg width="26" height="26" viewBox="0 0 26 26" fill="none" xmlns="http://www.w3.org/2000/svg">
<path d="M8.75881 16.2412C9.07611 16.5585 9.59056 16.5585 9.90786 16.2412C10.2252 15.9239 10.2252 15.4094 9.90786 15.0921L8.75881 16.2412ZM5 11.3333L4.42548 10.7588C4.10817 11.0761 4.10817 11.5906 4.42548 11.9079L5 11.3333ZM9.90786 7.57452C10.2252 7.25722 10.2252 6.74278 9.90786 6.42548C9.59056 6.10817 9.07611 6.10817 8.75881 6.42548L9.90786 7.57452ZM5 10.5208C4.55127 10.5208 4.1875 10.8846 4.1875 11.3333C4.1875 11.7821 4.55127 12.1458 5 12.1458V10.5208ZM15.8333 19.1875C15.3846 19.1875 15.0208 19.5513 15.0208 20C15.0208 20.4487 15.3846 20.8125 15.8333 20.8125V19.1875ZM9.90786 15.0921L5.57452 10.7588L4.42548 11.9079L8.75881 16.2412L9.90786 15.0921ZM5.57452 11.9079L9.90786 7.57452L8.75881 6.42548L4.42548 10.7588L5.57452 11.9079ZM5 12.1458H16.9167V10.5208H5V12.1458ZM16.9167 12.1458C18.8612 12.1458 20.4375 13.7222 20.4375 15.6667H22.0625C22.0625 12.8247 19.7586 10.5208 16.9167 10.5208V12.1458ZM20.4375 15.6667C20.4375 17.6112 18.8612 19.1875 16.9167 19.1875V20.8125C19.7586 20.8125 22.0625 18.5086 22.0625 15.6667H20.4375ZM16.9167 19.1875H15.8333V20.8125H16.9167V19.1875Z" fill="#C9CEDF"/>
</svg>
