<svg width="26" height="26" viewBox="0 0 26 26" fill="none" xmlns="http://www.w3.org/2000/svg">
<path d="M17.2412 16.2412C16.9239 16.5585 16.4094 16.5585 16.0921 16.2412C15.7748 15.9239 15.7748 15.4094 16.0921 15.0921L17.2412 16.2412ZM21 11.3333L21.5745 10.7588C21.8918 11.0761 21.8918 11.5906 21.5745 11.9079L21 11.3333ZM16.0921 7.57452C15.7748 7.25722 15.7748 6.74278 16.0921 6.42548C16.4094 6.10817 16.9239 6.10817 17.2412 6.42548L16.0921 7.57452ZM21 10.5208C21.4487 10.5208 21.8125 10.8846 21.8125 11.3333C21.8125 11.7821 21.4487 12.1458 21 12.1458V10.5208ZM10.1667 19.1875C10.6154 19.1875 10.9792 19.5513 10.9792 20C10.9792 20.4487 10.6154 20.8125 10.1667 20.8125V19.1875ZM16.0921 15.0921L20.4255 10.7588L21.5745 11.9079L17.2412 16.2412L16.0921 15.0921ZM20.4255 11.9079L16.0921 7.57452L17.2412 6.42548L21.5745 10.7588L20.4255 11.9079ZM21 12.1458H9.08333V10.5208H21V12.1458ZM9.08333 12.1458C7.13883 12.1458 5.5625 13.7222 5.5625 15.6667H3.9375C3.9375 12.8247 6.24137 10.5208 9.08333 10.5208V12.1458ZM5.5625 15.6667C5.5625 17.6112 7.13883 19.1875 9.08333 19.1875V20.8125C6.24137 20.8125 3.9375 18.5086 3.9375 15.6667H5.5625ZM9.08333 19.1875H10.1667V20.8125H9.08333V19.1875Z" fill="#C9CEDF"/>
</svg>
