<svg width="65" height="65" viewBox="0 0 65 65" fill="none" xmlns="http://www.w3.org/2000/svg">
<circle cx="32.5" cy="32.5" r="32.5" fill="url(#paint0_linear)"/>
<path fill-rule="evenodd" clip-rule="evenodd" d="M35.2125 42.4798C33.5381 44.1599 31.0935 45 27.8788 45C24.6416 45 22.1859 44.1655 20.5115 42.4965C18.8372 40.8275 18 38.3908 18 35.1864V23.1363C18 22.491 18.1898 21.9736 18.5693 21.5841C18.9488 21.1947 19.4623 21 20.1097 21C20.7571 21 21.2706 21.1947 21.6501 21.5841C22.0296 21.9736 22.2194 22.491 22.2194 23.1363V35.42C22.2194 37.4451 22.6994 38.975 23.6594 40.0097C24.6193 41.0445 26.0258 41.5619 27.8788 41.5619C29.7094 41.5619 31.1047 41.0389 32.0647 39.993C33.0246 38.9471 33.5046 37.4228 33.5046 35.42V23.1363C33.5046 22.491 33.6944 21.9736 34.0739 21.5841C34.4534 21.1947 34.9669 21 35.6143 21C36.2617 21 36.7752 21.1947 37.1547 21.5841C37.5343 21.9736 37.724 22.491 37.724 23.1363V35.1864C37.724 38.3686 36.8868 40.7997 35.2125 42.4798ZM46.414 44.299C46.0233 44.6996 45.4931 44.8999 44.8233 44.8999C44.1759 44.8999 43.6569 44.6996 43.2662 44.299C42.8755 43.8985 42.6801 43.3755 42.6801 42.7302V23.1363C42.6801 22.491 42.8755 21.9736 43.2662 21.5841C43.6569 21.1947 44.1759 21 44.8233 21C45.4931 21 46.0233 21.1947 46.414 21.5841C46.8047 21.9736 47 22.491 47 23.1363V42.7302C47 43.3755 46.8047 43.8985 46.414 44.299Z" fill="white"/>
<defs>
<linearGradient id="paint0_linear" x1="0" y1="64.7424" x2="64.4849" y2="64.7424" gradientUnits="userSpaceOnUse">
<stop stop-color="#BA81FF"/>
<stop offset="1" stop-color="#FF6A95"/>
</linearGradient>
</defs>
</svg>
